<svg xmlns="http://www.w3.org/2000/svg" fill="currentColor" viewBox="0 0 512 512">
  <path fill="#000"
    d="M436.438 202.724c1.919 0 3.724.487 5.3 1.341a11.1 11.1 0 0 1 5.82 9.769v31.562h30.578c6.141 0 11.12 4.974 11.12 11.11s-4.978 11.11-11.12 11.11h-30.578v29.95c0 6.135-4.978 11.11-11.119 11.11l-85.165-.034c-6.141 0-11.12-4.974-11.12-11.111V256h.025c.266-5.9 5.123-10.605 11.095-10.605h74.047v-20.452h-85.468l-40.561 75.199c-.648 3.328-2.792 6.323-6.087 7.905a11.06 11.06 0 0 1-4.804 1.099 11.13 11.13 0 0 1-9.606-5.512 11 11 0 0 1-1.036-1.974l-32.031-62.823-32.409 61.421c-1.402 3.29-3.453 6.206-6.748 7.789a11.06 11.06 0 0 1-4.803 1.099 11.12 11.12 0 0 1-9.606-5.511 11 11 0 0 1-1.037-1.981l-39.115-76.711H86.681v20.452H139.5c6.141 0 11.12 4.973 11.12 11.11s-4.978 11.109-11.12 11.109H86.681v30.553c0 6.136-4.977 11.11-11.12 11.11-6.14 0-11.119-4.973-11.119-11.11v-30.553H33.864c-6.142 0-11.12-4.973-11.12-11.109 0-6.135 4.978-11.11 11.12-11.11H64.44v-31.561a11.11 11.11 0 0 1 11.12-11.111h82.891c1.804 0 3.501.439 5.008 1.199a11.06 11.06 0 0 1 5.501 5.331l32.784 64.298 32.888-61.409c1.654-3.361 2.57-6.382 6.123-8.089a11.05 11.05 0 0 1 4.802-1.098 11.18 11.18 0 0 1 7.479 2.88c2.025 1.584 2.962 2.655 4.353 5.344l30.987 62.372 34.778-64.472a11.06 11.06 0 0 1 3.58-3.797 11.08 11.08 0 0 1 7.1-2.56h102.603m-74.552 83.699h63.433v-18.807h-63.433zM436.438 180H333.836a33.95 33.95 0 0 0-20.618 6.995 34 34 0 0 0-9.828 10.847l-.13.227-.124.231-14.19 26.304s-16.473-32.221-21.254-36.151a33.83 33.83 0 0 0-22.133-8.22 34.05 34.05 0 0 0-14.66 3.344c-8.827 4.242-13.709 12.013-17.872 21.166l-10.714 19.861-13.001-25.501a33.88 33.88 0 0 0-16.098-15.71 34.05 34.05 0 0 0-14.759-3.392H75.562a34 34 0 0 0-16.156 4.097 33.81 33.81 0 0 0-17.708 29.737v8.837h-7.833C15.192 222.671 0 237.848 0 256.504s15.192 33.833 33.864 33.833h7.833v7.829C41.697 316.822 56.89 332 75.561 332s33.863-15.178 33.863-33.834v-7.829h30.074a33.7 33.7 0 0 0 17.761-5.036l13.258 26.002a34 34 0 0 0 2.314 4.313c6.113 10.042 17.142 16.254 28.936 16.254a34.1 34.1 0 0 0 14.662-3.345c8.26-3.967 15.436-10.665 19.1-19.249l9.631-21.491 11.997 23.526a34 34 0 0 0 2.3 4.29c6.111 10.051 17.143 16.268 28.943 16.268a34.1 34.1 0 0 0 14.661-3.343c7.743-3.718 13.76-10.301 16.859-18.209 5.058 12.335 17.207 21.046 31.353 21.046l85.165.024c18.672 0 33.864-14.565 33.864-33.221v-7.829h7.834c18.672 0 33.864-15.177 33.864-33.833s-15.192-33.834-33.864-33.834h-7.834v-8.836a33.81 33.81 0 0 0-17.708-29.738A34 34 0 0 0 436.438 180" />
</svg>